# xmcd
#
# Track frame offsets:
#	150
#	13398
#	39271
#	59414
#	92252
#	113245
#	146388
#	191266
#	226919
#	249697
#	280035
#
# Disc length: 4068 seconds
#
# Revision: 1
# Processed by: cddbd v1.5PL3 Copyright (c) Steve Scherf et al.
# Submitted via: audiograbber 1.82.01
#
DISCID=8a0fe20b
DTITLE=Allman Brothers Band - Nashville TN
DYEAR=1999
DGENRE=
TTITLE0=Don't Want You No More
TTITLE1=It's Not My Cross To Bear
TTITLE2=Don't Keep Me Wonderin'
TTITLE3=Ramblin' Man
TTITLE4=Please Call Home
TTITLE5=J.J.'s Alley
TTITLE6=Southbound
TTITLE7=Black Hearted Woman
TTITLE8=Seven Turns
TTITLE9=Melissa
TTITLE10=Sailin' Across The Devil's Sea
EXTD=
EXTT0=
EXTT1=
EXTT2=
EXTT3=
EXTT4=
EXTT5=
EXTT6=
EXTT7=
EXTT8=
EXTT9=
EXTT10=
PLAYORDER=
